<svg xmlns="http://www.w3.org/2000/svg" viewBox="0 0 24 24" fill="none" stroke="#8B5CF6" stroke-width="2" stroke-linecap="round" stroke-linejoin="round">
        
<defs>
    <filter id="glow" x="-20%" y="-20%" width="140%" height="140%">
        <feGaussianBlur stdDeviation="2" result="blur"/>
        <feComposite in="SourceGraphic" in2="blur" operator="over"/>
    </filter>
    <linearGradient id="grad1" x1="0%" y1="0%" x2="100%" y2="100%">
        <stop offset="0%" style="stop-color:#8B5CF6;stop-opacity:1" />
        <stop offset="100%" style="stop-color:#3B82F6;stop-opacity:1" />
    </linearGradient>
</defs>

        <path d="M21 11.5a8.38 8.38 0 0 1-.9 3.8 8.5 8.5 0 0 1-7.6 4.7 8.38 8.38 0 0 1-3.8-.9L3 21l1.9-5.7a8.38 8.38 0 0 1-.9-3.8 8.5 8.5 0 0 1 4.7-7.6 8.38 8.38 0 0 1 3.8-.9h.5a8.48 8.48 0 0 1 8 8v.5z" filter="url(#glow)"/>
    </svg>