<svg xmlns="http://www.w3.org/2000/svg" viewBox="0 0 24 24" fill="none" stroke="#EF4444" stroke-width="2" stroke-linecap="round" stroke-linejoin="round">
        
<defs>
    <filter id="glow" x="-20%" y="-20%" width="140%" height="140%">
        <feGaussianBlur stdDeviation="2" result="blur"/>
        <feComposite in="SourceGraphic" in2="blur" operator="over"/>
    </filter>
    <linearGradient id="grad1" x1="0%" y1="0%" x2="100%" y2="100%">
        <stop offset="0%" style="stop-color:#8B5CF6;stop-opacity:1" />
        <stop offset="100%" style="stop-color:#3B82F6;stop-opacity:1" />
    </linearGradient>
</defs>

        <polyline points="3 6 5 6 21 6" filter="url(#glow)"/>
        <path d="M19 6v14a2 2 0 0 1-2 2H7a2 2 0 0 1-2-2V6m3 0V4a2 2 0 0 1 2-2h4a2 2 0 0 1 2 2v2" filter="url(#glow)" />
        <line x1="10" y1="11" x2="10" y2="17" filter="url(#glow)" />
        <line x1="14" y1="11" x2="14" y2="17" filter="url(#glow)" />
    </svg>